<svg version="1.2" xmlns="http://www.w3.org/2000/svg" viewBox="0 0 429 520" width="429" height="520">
	<defs>
		<linearGradient id="g1" x2="1" gradientUnits="userSpaceOnUse" gradientTransform="matrix(-5.535,74.995,-93.16,-6.876,222.445,21.654)">
			<stop offset="0" stop-color="#ffffff" stop-opacity=".8"/>
			<stop offset="1" stop-color="#ffffff" stop-opacity="0"/>
		</linearGradient>
		<linearGradient id="g2" x2="1" gradientUnits="userSpaceOnUse" gradientTransform="matrix(-41.15,-135.012,92.878,-28.308,143.415,430.803)">
			<stop offset="0" stop-color="#ffeed7"/>
			<stop offset="1" stop-color="#bdbfc2"/>
		</linearGradient>
		<linearGradient id="g3" x2="1" gradientUnits="userSpaceOnUse" gradientTransform="matrix(-41.15,-135.013,89.682,-27.334,143.415,430.803)">
			<stop offset="0" stop-color="#ffeed7"/>
			<stop offset="1" stop-color="#bdbfc2"/>
		</linearGradient>
		<linearGradient id="g4" x2="1" gradientUnits="userSpaceOnUse" gradientTransform="matrix(-2.332,17.469,-11.355,-1.516,237.702,105.386)">
			<stop offset="0" stop-color="#ffffff" stop-opacity=".65"/>
			<stop offset="1" stop-color="#ffffff" stop-opacity="0"/>
		</linearGradient>
		<linearGradient id="g5" x2="1" gradientUnits="userSpaceOnUse" gradientTransform="matrix(2.51,14.134,-8.288,1.472,181.85,108.573)">
			<stop offset="0" stop-color="#ffffff" stop-opacity=".65"/>
			<stop offset="1" stop-color="#ffffff" stop-opacity="0"/>
		</linearGradient>
		<linearGradient id="g6" x2="1" gradientUnits="userSpaceOnUse" gradientTransform="matrix(.418,99.915,-118.056,.494,215.033,254.765)">
			<stop offset="0" stop-color="#ffffff" stop-opacity=".8"/>
			<stop offset="1" stop-color="#ffffff" stop-opacity="0"/>
		</linearGradient>
		<linearGradient id="g7" x2="1" gradientUnits="userSpaceOnUse" gradientTransform="matrix(.46,39.728,-49.401,.572,217.26,192.117)">
			<stop offset="0" stop-color="#ffffff" stop-opacity=".65"/>
			<stop offset="1" stop-color="#ffffff" stop-opacity="0"/>
		</linearGradient>
		<linearGradient id="g8" x2="1" gradientUnits="userSpaceOnUse" gradientTransform="matrix(0,145.793,-45.89,0,114,216.637)">
			<stop offset="0" stop-color="#ffffff" stop-opacity=".65"/>
			<stop offset="1" stop-color="#ffffff" stop-opacity="0"/>
		</linearGradient>
		<linearGradient id="g9" x2="1" gradientUnits="userSpaceOnUse" gradientTransform="matrix(-0.055,131.733,-41.663,-0.017,346.825,202.397)">
			<stop offset="0" stop-color="#ffffff" stop-opacity=".65"/>
			<stop offset="1" stop-color="#ffffff" stop-opacity="0"/>
		</linearGradient>
		<linearGradient id="g10" x2="1" gradientUnits="userSpaceOnUse" gradientTransform="matrix(-22.33,74.6,-87.325,-26.139,106.715,424.935)">
			<stop offset="0" stop-color="#ffa63f"/>
			<stop offset="1" stop-color="#ffff00"/>
		</linearGradient>
		<linearGradient id="g11" x2="1" gradientUnits="userSpaceOnUse" gradientTransform="matrix(59.59,81.252,-93.023,68.223,318.05,402.25)">
			<stop offset="0" stop-color="#ffa63f"/>
			<stop offset="1" stop-color="#ffff00"/>
		</linearGradient>
		<linearGradient id="g12" x2="1" gradientUnits="userSpaceOnUse" gradientTransform="matrix(-20.837,98.18,-53.493,-11.353,333.995,337.333)">
			<stop offset="0" stop-color="#ffffff" stop-opacity=".65"/>
			<stop offset="1" stop-color="#ffffff" stop-opacity="0"/>
		</linearGradient>
		<linearGradient id="g13" x2="1" gradientUnits="userSpaceOnUse" gradientTransform="matrix(4.132,110.493,-99.933,3.737,102.16,361.605)">
			<stop offset="0" stop-color="#ffffff" stop-opacity=".65"/>
			<stop offset="1" stop-color="#ffffff" stop-opacity="0"/>
		</linearGradient>
		<linearGradient id="g14" x2="1" gradientUnits="userSpaceOnUse" gradientTransform="matrix(4.832,33.015,-33.533,4.908,330.388,335.54)">
			<stop offset="0" stop-color="#ffffff" stop-opacity=".65"/>
			<stop offset="1" stop-color="#ffffff" stop-opacity="0"/>
		</linearGradient>
		<linearGradient id="g15" x2="1" gradientUnits="userSpaceOnUse" gradientTransform="matrix(.402,58.145,-84.584,.585,215.11,133.6)">
			<stop offset="0" stop-color="#ffa63f"/>
			<stop offset="1" stop-color="#ffff00"/>
		</linearGradient>
		<linearGradient id="g16" x2="1" gradientUnits="userSpaceOnUse" gradientTransform="matrix(-0.11,30.745,-46.409,-0.166,208.765,128.095)">
			<stop offset="0" stop-color="#ffffff" stop-opacity=".65"/>
			<stop offset="1" stop-color="#ffffff" stop-opacity="0"/>
		</linearGradient>
	</defs>
	<style>
		.s0 { fill: #000000 } 
		.s1 { fill: url(#g1) } 
		.s2 { fill: url(#g2) } 
		.s3 { fill: url(#g3) } 
		.s4 { fill: url(#g4) } 
		.s5 { fill: url(#g5) } 
		.s6 { fill: url(#g6) } 
		.s7 { fill: url(#g7) } 
		.s8 { fill: url(#g8) } 
		.s9 { fill: url(#g9) } 
		.s10 { fill: url(#g10) } 
		.s11 { fill: #e68c3f } 
		.s12 { fill: url(#g11) } 
		.s13 { fill: url(#g12) } 
		.s14 { fill: url(#g13) } 
		.s15 { fill: url(#g14) } 
		.s16 { fill: url(#g15) } 
		.s17 { fill: url(#g16) } 
	</style>
	<path class="s0" d="m103.66 411.75c-3.14-4.67-5.88-10.97-8.1-18.5-40.17-45.3-9.14-111.96 21.55-157.23q4.41-7.26 9.64-13.98c23.41-29.1 29.47-49.35 31.27-76.74 0.22-5.1-0.2-11.85-0.69-19.61-2.48-39.6-6.59-105.4 64.07-111.23 88.32-7.29 81.13 73.82 80.47 121.37q-0.04 2.95-0.07 5.73c-0.24 28.67 14.72 48.29 30.34 68.78 5.7 7.48 11.49 15.08 16.66 23.27q0.23 0.36 0.46 0.73c27.29 39.35 54.22 98.08 16.73 153.79-5.27 19.02-13.25 36.47-23.91 50.67-38.24 50.33-72.23 45.22-98.78 41.23-8.01-1.2-15.34-2.3-21.9-1.75-10.91 0.66-19.65 2.42-27.2 3.95-29.18 5.89-40.59 8.19-90.54-70.48z"/>
	<path class="s1" d="m271.35 58.86c-0.82 23.31-25.55 43.56-55.19 45.43-29.64 1.87-52.89-15.82-52.07-39.13 0.81-23.31 25.54-43.56 55.18-45.43 29.64-1.7 52.89 15.82 52.08 39.13z"/>
	<path fill-rule="evenodd" class="s2" d="m240.73 83.02c13.1-0.34 24.07 13.62 24.4 31.14 0.3 16.27-8.4 29.81-19.98 32.15 9.98 2.93 17.48 8.22 19.33 16.17 0 36.13 14.73 60.51 26.8 80.49 3.14 5.18 6.09 10.07 8.57 14.79 1.22 2.35 2.72 4.97 4.38 7.88 7.35 12.86 17.85 31.25 21.79 54.9q2.91 0.33 6.08 1.19c12.83-34.66-10.87-71.9-21.77-82.34-5.01-5-4.56-6.83-1.33-6.03 17.3 16.33 41.53 54.83 32.74 91.85q1.71 0.77 3.47 1.63c22.92 11.74 29.8 21.61 23.08 36.08-5.56 10.88-28.81 28.41-44.37 23.82q-2.65-0.76-4.98-2.23c-2.64 6.96-5.97 14.17-10.09 21.62-30.95 52.41-124.78 93.92-174.89-7.14-6.29-12.96-9.84-27.05-11.02-41.59-37.43-32.57-7.54-86.78 8.33-113.77 4.14-4.84 4.34-2.26-6.31 18.39-8.02 15.69-22.87 51.85-2.43 80.03 0.55-20.05 5.18-40.5 12.9-59.61 1.92-4.51 4.19-9.58 6.64-15.08 12.47-27.87 29.8-66.6 30.21-97.73 0-18.4 32.96-28.12 59.55-25.74-8.15-4.88-13.95-15.69-14.19-28.37-0.49-17.52 9.99-32.16 23.09-32.5zm-12.28 36.42c-0.17 9.69 4.42 17.52 10.48 17.52 5.89 0 10.97-7.83 11.14-17.36 0.16-9.69-4.43-17.52-10.48-17.52-6.06 0-10.98 7.83-11.14 17.36z"/>
	<path fill-rule="evenodd" class="s3" d="m166.22 116.37c-0.82-15.14 6.06-27.9 15.56-28.41 9.5-0.51 17.85 11.23 18.67 26.37 0.81 15.15-6.06 27.91-15.56 28.41-9.5 0.51-17.85-11.23-18.67-26.37zm15.23-10.21c-4.26 0.69-7.21 7.49-6.39 15.49 0.82 7.99 4.92 13.95 9.17 13.44 4.26-0.68 7.21-7.49 6.39-15.49-0.82-7.99-4.91-13.95-9.17-13.44z"/>
	<path class="s4" d="m230.9 113.99c-0.49 5.44 1.97 9.87 5.41 10.21 3.44 0.34 6.71-3.91 7.2-9.19 0.49-5.44-1.96-9.87-5.4-10.21-3.44-0.34-6.72 3.92-7.21 9.19z"/>
	<path class="s5" d="m187.02 115.35c0.5 4.43-1.31 8.34-3.92 8.68-2.63 0.34-5.08-3.06-5.58-7.65-0.48-4.43 1.31-8.34 3.94-8.68 2.62-0.34 5.07 3.23 5.56 7.65z"/>
	<path class="s6" d="m287.73 292.81c0 29.95-27.68 68.74-75.17 68.4-48.96 0.34-69.76-38.45-69.76-68.4 0-29.94 32.43-54.27 72.38-54.27 40.12 0.17 72.55 24.33 72.55 54.27z"/>
	<path class="s7" d="m261.86 198.73c-0.49 30.97-19.97 38.28-44.54 38.28-24.56 0-42.41-4.59-44.54-38.28 0-21.1 19.98-33.35 44.54-33.35 24.57-0.17 44.54 12.08 44.54 33.35z"/>
	<path class="s8" d="m113.34 246.37c16.05-25.35 49.94-64.32 6.39 5.44-35.37 57.51-13.1 94.44-1.64 104.64 33.08 30.63 31.77 51.22 5.73 35.05-55.84-34.54-44.21-92.73-10.48-145.13z"/>
	<path class="s9" d="m345.7 256.75c-13.92-29.77-58.13-105.32 2.13-17.52 54.86 79.45 16.38 134.75 9.5 140.2-6.88 5.44-29.97 16.5-23.25-2.73 6.87-19.22 40.93-55.64 11.62-119.95z"/>
	<path class="s10" d="m101.22 491.55c-36.68-20.24-89.9 3.92-70.58-50.87 3.93-12.42-5.73-31.14 0.49-43.22 7.37-14.8 23.26-11.57 32.76-21.44 9.33-10.2 15.22-27.9 32.75-25.18 17.35 2.72 28.98 24.84 41.1 52.07 9.01 19.39 40.77 46.79 38.64 68.57-2.62 33.34-39.13 39.64-75.16 20.07z"/>
	<path fill-rule="evenodd" class="s11" d="m97.46 345.11c24.24 3.81 36.36 35.23 45.31 55.32 13.58 29.14 60.1 60.46 29.94 94.9-27.38 31.28-70.61-2.32-101.5-6.83-15.42-2.26-39.75-0.64-47.82-16.96-6.93-14.04 3.52-26.75 2.55-40.74-0.83-11.92-5.55-24.72 0.25-36.04 7.94-15.9 23.28-12.05 33.7-22.78 11.06-12.16 17.7-29.95 37.57-26.87zm-29.54 34.9c-8.92 9.76-25.31 7.42-31.88 20.18-4.22 8.2 0.39 20.8 1.01 29.78 0.77 11.09-8.42 26.8-3.74 36.28 5.26 10.63 29.01 9.25 39.46 10.78 25.78 3.77 68.39 37.13 91.7 10.51 22.79-26.04-21.02-58.98-31.76-82.12-6.99-15.7-17.45-45.8-36.91-48.85-13.72-2.13-19.97 14.79-27.88 23.44z"/>
	<path class="s12" d="m355.53 482.19c26.86-33.85 86.63-26.88 46.35-73.33-8.52-10.04-5.9-31.48-16.38-40.66-12.28-11.23-25.87-2.05-38.32-7.83-12.44-6.3-25.54-18.38-40.77-9.87-15.23 8.68-16.87 31.14-18.34 60.74-1.31 21.27-19.98 56.83-9.99 76.4 14.41 30.28 51.91 26.2 77.45-5.45z"/>
	<path fill-rule="evenodd" class="s11" d="m366.24 356.45c6.89-0.18 15.13 0.31 22.88 7.36 9.63 8.5 9.73 22.36 13.36 33.96 4.3 13.75 19.37 21.6 18.47 37.72-1.47 26.35-47.1 32.7-61.15 50.41-13.5 16.72-30.56 26.67-46.75 28.01-24.55 2.04-44.83-18.61-43.39-43.81 1.16-20.41 11.55-38.95 12.82-59.19 0.73-14.66 1.52-28.25 4.17-39.28 2.68-11.16 7.5-20.76 17.06-26.2 20.92-11.69 41.14 11.59 62.53 11.02zm-57.19-0.86c-5.67 3.24-9.27 9.2-11.59 18.84-2.34 9.75-3.11 22.25-3.85 37.19-1.25 20.28-11.67 38.81-12.83 59.16-1.03 18.15 12.91 33.12 31.39 31.59 12.54-1.04 27.01-8.96 39.06-23.88 10.76-13.56 57.61-26.15 58.59-43.67 0.64-11.44-14.41-22.17-17.94-33.46-2.77-8.84-2.91-22.53-9.99-28.74-4.53-4.13-9.29-4.75-15.37-4.59-17.62 0.46-41.12-21.55-57.47-12.44z"/>
	<path class="s13" d="m343.89 436.94c41.59-63.81 10.64-63.3 0.16-68.24-10.48-5.1-21.45-15.14-33.73-8.16-12.28 7.14-12.94 25.52-13.26 49.68-0.49 17.36-14.41 46.45-6.06 62.61 10.15 18.89 34.71-8.5 52.89-35.89z"/>
	<path class="s14" d="m92.7 446.12c-62.22-41.86-33.07-56.15-23.74-62.79 11.3-8.51 11.46-24.84 25.38-23.31 13.92 1.54 22.11 19.4 31.44 41.52 6.88 15.82 30.79 36.92 28.99 55.13-2.29 21.44-35.21 7.31-62.07-10.55z"/>
	<path class="s0" d="m364.7 362.4c-4.91 8.85-24.89 22.8-38.15 19.06-13.59-3.57-19.82-23.48-17.03-38.45 2.45-17.02 17.03-17.87 35.37-9.36 19.48 9.19 25.54 17.01 19.81 28.75z"/>
	<path class="s15" d="m351.27 357.47c-3.11 6.13-16.21 15.82-25.38 13.27-9.17-2.55-13.76-16.33-12.28-26.71 1.3-11.74 11.13-12.42 23.58-6.64 13.43 6.47 17.68 11.91 14.08 20.08z"/>
	<path class="s16" d="m181.94 135.44c6.55-6.3 22.43-25.52 52.56-5.44 5.57 3.74 10.15 4.08 20.8 8.84 21.45 9.19 11.29 31.31-11.63 38.79-9.83 3.24-18.67 15.66-36.35 14.47-15.23-0.85-19.16-11.23-28.5-16.85-16.53-9.69-18.99-22.8-9.99-29.77 9.01-6.98 12.45-9.53 13.11-10.04z"/>
	<path fill-rule="evenodd" class="s11" d="m198.28 119.54c9.67-3.49 22.25-2.99 38.04 7.53 10.37 6.98 26.15 6.3 32.41 19.07 7.98 16.27-11.34 30.65-24.06 34.8-13.61 4.48-21.21 15.71-37.55 14.62-8.47-0.48-13.91-3.67-18.36-7.4-9.24-7.76-24.85-15.13-28.41-27.42-1.98-6.82 0.9-13.73 6.49-18.05 9.02-6.99 21.21-19.46 31.44-23.15zm-27.45 28.72c-3.42 2.65-4.51 6.18-3.38 10.08 2.33 8 19.09 19.02 25.51 24.41 3.65 3.07 7.82 5.5 14.57 5.88 14.45 0.97 22.48-10.15 35.14-14.31 8.32-2.72 25.94-13.12 20.11-25.02-4.98-10.16-21.76-10.79-30.09-16.39-14.34-9.55-24.78-9.49-32.22-6.81-8.15 2.94-22.26 16.44-29.64 22.16z"/>
	<path fill-rule="evenodd" class="s11" d="m257.86 153.18c0.07 1.27-0.87 2.37-2.1 2.44-17.33 0.98-29.51 20.76-49.09 20.76-10.95 0-19.62-5.29-25.82-10.37-1.24-1.02-12.27-9.52-12.27-11.69 0-1.27 1-2.31 2.23-2.31 2.3 0 9.25 7.54 11.84 9.66 5.84 4.78 14.51 10.07 24.03 10.07 19.37 0 31.26-19.75 48.84-20.75 1.22-0.07 2.28 0.91 2.34 2.19z"/>
	<path class="s17" d="m192.11 133.73c3.27-3.06 13.58-11.4 27.18-2.89 2.94 1.7 5.89 3.57 10.15 6.12 8.68 5.28 4.42 12.93-6.06 17.7-4.75 2.04-12.61 6.46-18.5 6.12-6.55-0.67-10.98-5.1-15.23-7.99-8.03-5.44-7.54-10.04-3.77-13.61 2.79-2.73 5.9-5.28 6.23-5.45z"/>
</svg>